<!-- icon666.com - MILLIONS OF FREE VECTOR ICONS --><svg version="1.1" id="Capa_1" xmlns="http://www.w3.org/2000/svg" xmlns:xlink="http://www.w3.org/1999/xlink" x="0px" y="0px" viewBox="0 0 512 512" style="enable-background:new 0 0 512 512;" xml:space="preserve"><g><g><path d="M362,195.483v105h50v-105H362z M397,285.483h-20v-75h20V285.483z"></path></g></g><g><g><path d="M219,119.483c-13.785,0-25,11.215-25,25v58h50v-58C244,130.698,232.785,119.483,219,119.483z M229,187.483h-20v-43 c0-5.514,4.486-10,10-10c5.514,0,10,4.486,10,10V187.483z"></path></g></g><g><g><path d="M285,119.483c-13.785,0-25,11.215-25,25v58h50v-58C310,130.698,298.785,119.483,285,119.483z M295,187.483h-20v-43 c0-5.514,4.486-10,10-10c5.514,0,10,4.486,10,10V187.483z"></path></g></g><g><g><path d="M219,253.483c-13.785,0-25,11.215-25,25v58h50v-58C244,264.698,232.785,253.483,219,253.483z M229,321.483h-20v-43 c0-5.514,4.486-10,10-10c5.514,0,10,4.486,10,10V321.483z"></path></g></g><g><g><path d="M285,253.483c-13.785,0-25,11.215-25,25v58h50v-58C310,264.698,298.785,253.483,285,253.483z M295,321.483h-20v-43 c0-5.514,4.486-10,10-10c5.514,0,10,4.486,10,10V321.483z"></path></g></g><g><g><path d="M219,397.483c-13.785,0-25,11.215-25,25v58h50v-58C244,408.698,232.785,397.483,219,397.483z M229,465.483h-20v-43 c0-5.514,4.486-10,10-10c5.514,0,10,4.486,10,10V465.483z"></path></g></g><g><g><path d="M285,397.483c-13.785,0-25,11.215-25,25v58h50v-58C310,408.698,298.785,397.483,285,397.483z M295,465.483h-20v-43 c0-5.514,4.486-10,10-10c5.514,0,10,4.486,10,10V465.483z"></path></g></g><g><g><path d="M430,195.483v105h50v-105H430z M465,285.483h-20v-75h20V285.483z"></path></g></g><g><g><path d="M362,373.483v105h50v-105H362z M397,463.483h-20v-75h20V463.483z"></path></g></g><g><g><path d="M430,373.483v105h50v-105H430z M465,463.483h-20v-75h20V463.483z"></path></g></g><g><g><path d="M472.5,86.483v-35h-25v-24h-55v24h-25v35H343V48.445L251.5,0.517L160,48.445v70.038h-20.25v-19.5 c0-28.949-23.551-52.5-52.5-52.5s-52.5,23.551-52.5,52.5v19.5H0v393h512v-425H472.5z M113.5,496.483h-55v-58.5 c0-15.164,12.336-27.5,27.5-27.5s27.5,12.336,27.5,27.5V496.483z M159.5,496.483h-31v-58.5c0-23.435-19.065-42.5-42.5-42.5 s-42.5,19.065-42.5,42.5v58.5H15v-121h144.5V496.483z M159.5,360.483H15v-227h34.75v-34.5c0-20.678,16.822-37.5,37.5-37.5 s37.5,16.822,37.5,37.5v34.5h34.75V360.483z M328,496.484H175v-0.001V374.817h153V496.484z M328,359.817H175V238.15h153V359.817z M328,223.15H175V101.483h153V223.15z M328,86.483H175V57.521l76.5-40.071L328,57.521V86.483z M497,496.483H343v-154h154V496.483z M497,327.483H343v-154h154V327.483z M497,158.483H343v-57h39.5v-35h25v-24h25v24h25v35H497V158.483z"></path></g></g><g><g><path d="M31.25,156.483v50h50v-50H31.25z M66.25,191.483h-20v-20h20V191.483z"></path></g></g><g><g><path d="M96,156.483v50h50v-50H96z M131,191.483h-20v-20h20V191.483z"></path></g></g><g><g><path d="M31.25,222.483v50h50v-50H31.25z M66.25,257.483h-20v-20h20V257.483z"></path></g></g><g><g><path d="M96,222.483v50h50v-50H96z M131,257.483h-20v-20h20V257.483z"></path></g></g><g><g><path d="M31.25,288.483v50h50v-50H31.25z M66.25,323.483h-20v-20h20V323.483z"></path></g></g><g><g><path d="M96,288.483v50h50v-50H96z M131,323.483h-20v-20h20V323.483z"></path></g></g><g><g><rect x="79.75" y="88.983" width="15" height="31"></rect></g></g><g><g><g><rect x="214" y="56.483" width="15" height="15"></rect><rect x="274" y="56.483" width="15" height="15"></rect><rect x="244" y="56.483" width="15" height="15"></rect></g></g></g><g><g><g><rect x="382.5" y="122.483" width="15" height="15"></rect><rect x="442.5" y="122.483" width="15" height="15"></rect><rect x="412.5" y="122.483" width="15" height="15"></rect></g></g></g></svg>